<svg version="1.2" xmlns="http://www.w3.org/2000/svg" viewBox="0 0 3556 2000" width="3556" height="2000">
	<title>3415454</title>
	<style>
		.s0 { fill: #e7f6da } 
		.s1 { fill: #d1e3c3 } 
		.s2 { fill: #6c8c2a } 
	</style>
	<g id="Background">
		<rect width="3556" height="2000" id="Background Color" style="fill: #ffffff"/>
	</g>
	<g id="Design">
		<path id="Shape " fill-rule="evenodd" class="s0" d="m1803.4 0c11.6 42.8 63 250-51 453.7-8.3 14.8-123.3 213.4-346.4 269.9-37.4 9.5-70.2 13.1-99.7 13.1-84.9 0-143-29.2-209.3-29.2-29.8 0-61.3 5.9-97.6 23-128.1 60.3-98.7 157.6-261 274.7-143.5 103.5-292.2 118.1-341 122.3-20.2 1.7-39.8 2.5-58.9 2.5-160 0-281.7-55.6-338.5-85.9q0.2-521.9 0.3-1043.8 901.6-0.1 1803.1-0.3z"/>
		<path id="Shape" fill-rule="evenodd" class="s0" d="m3164.6 1491.3c70-24.1 153.8-44.5 234.1-40-33.4-2.6-66.8-3.5-99.6-2.6-45 1.2-89.5 5.9-132.2 13.8-85.3 15.8-161.1 44.1-225.4 83.9 61.9-34.9 102.2-13.6 223.1-55.1zm-406.6 328.9c0-58.2 19.3-124.3 79.8-188.9 4-4.3 9.4-10.1 16.4-17 15.4-15.7 38.3-36.8 71.4-58.2 53.3-35.6 131.3-73.5 241.1-93.9 185.1-34.4 342.9 3 387.8 14.7q0.8 261 1.5 522-369.4 0.5-738.8 1.1c-10.8-15.5-59.2-87.8-59.2-179.8z"/>
		<path id="Shape" class="s1" d="m1308.8 963.8c71.2-98.7 61.4-239.4 6.3-340.4-55.1-101.1-146.7-171-236.6-237.1q-47.6-34.9-95.6-69.3c-102.2-73.4-230.9-115-356-55.9-90.8 42.9-166.2 117.3-239.5 190.2-35 34.8-70.8 70.6-93.1 115.4-23.5 47.2-30.3 101.1-29.6 153.1 2.4 183.9 101.2 357.4 253 433.7 82.8 41.7 176.7 54.9 267.5 74.8 74.5 16.4 149.2 37.7 226.5 31.4 77.3-6.3 159.7-46.7 196.7-121.8 14.5-29.5 21.2-62.6 37-91.4 16.9-30.6 43-54.5 63.4-82.7z"/>
		<path id="Flower" class="s2" d="m443.9 1854.1c-7.8-14.8-11.5-31-15.9-47-0.8-2.9-2.3-4.7-4.9-5.8-3.4-1.4-6.7-3.1-10.1-4.4-22.8-8.7-41.7-22.3-55.3-43.2-3.5-5.6-7.6-10.8-11.1-16.4-1.5-2.5-4.8-5.5-2.4-8.3 2.6-2.9 5.7 0.2 8.2 1.6 24.8 13.7 47.4 30 65.6 52.3 0.9 1.1 1.9 2.1 2.9 3.1 0.1 0.1 0.4 0.1 0.7 0.2 0.9-1.9-0.2-3.6-0.7-5.2-7.4-26.7-16-53.2-23-80.1-1.1-4.1-3.5-7.3-7.1-10-7.9 7.2-17.4 10.8-27.1 14-2.6 0.8-5.1 1.1-7.8 0.9-2-0.1-3.7-0.7-4.4-2.7-0.8-2 0.1-3.7 1.4-5.1 2.5-3.1 5.8-5.3 9.3-7 2.4-1.3 5-2.3 7.4-3.5-0.3-1.2-1.1-1.4-1.9-1.6-11.8-3.2-19.5-11.5-25.7-21.6-0.6-1.1-1.2-2.2-1.5-3.4-1.2-3.6-0.2-5.2 3.5-5.2 4.8 0 9.3 1.6 13.7 3.1 3.4 1.2 6.6 2.8 10.2 4.3 0-2.4-1.4-3.7-2.1-5.3-2.9-6.2-4.3-12.6-2.6-19.3 1.5-6.5 5.8-8.2 11.5-5 2.8 1.5 4.8 3.9 6.7 6.3 1.4 1.8 2.8 3.5 4.5 5.6 1.5-1.9 1.2-4 1.4-5.9 0.5-4.4 1.3-8.7 3.6-12.5 1.9-3.1 4.5-5.4 8.5-5 3.9 0.5 5.5 3.3 6.6 6.5 2 5.8 2.7 11.7 2.6 17.8 0 2-0.4 4.1 0.7 6.6 3.1-2.7 6.1-5.3 9.1-7.9 1.3-1 2.6-2.1 4-2.9 3.6-1.9 6.1-0.4 6 3.8-0.3 7.4-2.5 14.3-6.8 20.3-4.2 5.9-9.7 10.1-16 13.3-2.8 1.4-3.3 3.6-4.4 6.4-2.6 6.1-0.5 11.1 1.1 16.5q10.6 35.5 21.1 71c0.4 1.3 1 2.6 2.4 3.9q0-4.1 0-8.2c0-11.7 2.6-23 5.4-34.3 2.7-10.7 5.5-21.3 7.3-32.2 0.3-1.8 0.2-4 2.8-4 2.3 0 2.8 1.9 3.3 3.8 2.4 9 3.2 18.3 4.1 27.6 0.9 8.7 1.6 17.3 1.9 26.1 0.4 16.9-3.4 32.6-12.3 46.8-3.8 6-4.1 11.3-2.1 18 4.2 13.7 8.6 27.2 16.4 39.4 1 1.6 2 3.1 3 4.6 0.5 0.7 0.8 1.5 1.2 2.1 2.3-1.6 1.3-3.1 1.2-4.4-1.5-16-0.8-31.9 1.4-47.8q2.1-16.1 4.3-32.1c0.1-0.8 0.1-1.7 0.2-2.5 0.2-1.4 0.9-2.3 2.4-2.2 1.4 0 2.3 0.7 2.5 2.2q1.1 7.7 2.3 15.4c3.8 26.2 4.1 52.5 2.4 78.9-0.2 2.9-0.8 5.8-1.7 8.5-0.5 1.7-0.8 3.2 0.4 4.7 5.8 7.2 11.5 14.4 18 20.9 1.5-1.6 0.9-3.1 0.7-4.4-2.9-17.2-2.2-34.3 0.2-51.5q1.1-7.7 2.1-15.4c0.2-1.7 0.5-3.4 2.7-3.4 1.8 0 2.5 1.3 2.8 2.8 4.7 24.7 8.4 49.5 2.9 74.7 0 0.2 0 0.4-0.1 0.6-3.2 5.1-0.8 8.6 2.8 12.2 8 7.9 15.1 16.9 22.1 25.8 0.7 0.9 1.2 2.1 2.7 2.5 1.6-0.8 0.7-2.1 0.5-3.2-4.9-27.8-8.1-55.8-10.5-83.9-0.7-7.2-3.3-14.1-6.3-20.8-7.8-17.6-15.9-35-23.5-52.7-11.4-26.2-22-52.7-28.2-80.8-4.1-18.1-6.8-36.3-9.2-54.6-0.6-4.3-1.3-8.7-1.7-13-1-9.7-5.7-17.7-11-25.3-5.6-8.2-11.6-16.1-17.4-24.1-2-2.9-4.9-4.3-7.9-5.7-8.3-3.8-16.5-8.1-24-13.5-3.3-2.4-6.2-5.3-9.2-8.1-1.4-1.3-2.2-2.9-2.7-4.8-0.6-3.2 0.3-6.1 2.5-7 2.8-1.1 5.3-0.5 7.3 1.7 2.8 3 3.7 6.9 3.8 10.9 0.1 3 1.2 4.9 3.6 6.6 5.9 4.1 11.8 7.9 19.3 10.3-0.2-2.6-1.5-4.2-2.4-5.9-4.4-8.7-8.2-17.6-9.8-27.3-0.4-2.3-1.1-4.4-2.1-6.5-1.4-2.8-2.2-5.8-2.7-8.9-0.6-3.5 0.2-6.6 2.1-9.5 1.1-1.8 2.6-3.1 5-2.7 2.4 0.3 3.4 1.9 4.1 4.1 1.2 4.1 1.1 8.4-0.6 12.1-3.1 6.7-1.6 13 0.4 19.4 3.7 11.6 9.2 22.1 16.2 32 6.7 9.4 13.5 18.7 20.3 28 0.2 0.3 0.7 0.4 1.5 0.8 0.6-5.2-0.7-9.9-1.3-14.7-4.5-33.1-7.5-66.4-6.7-99.9 0.1-4.1-1.8-7.1-3.6-10.4-1-1.8-2.6-1.7-4.3-1.7-13.6-0.8-23.3-8.8-32-18.6q-0.6-0.7-1-1.5c-1.1-2-0.4-3.4 1.8-3.1 1.8 0.3 3.5 1.1 5.2 1.8 5.6 2.2 11.2 4.6 17.3 6.2q-1.6-2.5-3.2-4.9c-6.7-10.1-10.3-21.2-11.9-33.1-0.1-1.2-0.1-2.5-0.1-3.7 0.1-1.9 0.2-4 2.3-4.7 2-0.6 3.6 0.6 4.8 2 5 5.6 9.1 11.8 13.1 18 1.9 2.9 3.6 5.9 6.4 8.8 0.4-5 0.8-9.9 1.2-14.9 0.4-5.2 1.2-10.3 2.4-15.3 1.4-5.9 6.6-6.1 10.1-2 1.7 2.1 2.7 4.6 3.6 7.2 1.8 5.5 3 11.2 3.5 17 0.3 2.6 0.6 5.3 1.4 8 2.3-0.7 2.9-2.9 4.2-4.4 4.7-5.8 10-10.9 16.6-14.4 5.8-3.1 9.7-0.5 9.4 6.2-0.2 6.4-2.4 12.1-5.5 17.6-1.5 2.6-3.1 5.2-5.3 8.9 5.3-1.5 9.4-2.2 13.7-2 3.7 0.2 7.3 1 10.5 2.8 3.3 1.9 3.7 3.9 1.6 7.2-0.4 0.5-0.7 1-1.2 1.4-12.5 10.6-25.5 19.7-43.1 15.2-1-0.3-2.1-0.6-2.8 0.2-2.4 2.8-5.7 4-8.7 5.7-2.7 1.5-2.6 4.1-2.5 6.5 0.3 10.6 0.6 21.2 1.1 31.8 1.3 25.9 4.7 51.7 8.2 77.4 0.2 1.7-0.2 3.7 2 5.2 6-18.1 13.5-35.7 12.1-55.5-0.6-7.8 0.2-15.8 1.6-23.5q0.5-2.8 1.4-5.5c0.7-2 1.9-3.8 4.3-3.8 2.4-0.1 4.2 1.3 5.3 3.5 1.8 3.5 2 7.2 0.3 10.8-0.7 1.5-1.5 3.1-2.8 4.1-4.9 3.8-5.5 9-5.4 14.9 0.2 6.8-0.3 13.7-1.7 20.4-0.2 1.1-0.8 2.4 0.5 4 3.2-3.2 5.8-6.7 8.1-10.6 2.2-3.5 4.2-7.1 6.5-10.6 1.7-2.7 4.1-4.7 7.3-5.2 2.5-0.3 5 0.2 6.3 2.7 1.4 2.4 0 4.4-1.6 6.1-2.9 3-6.2 5.5-10.1 6.8-3.2 1-5.2 3-7.1 5.5-1.8 2.5-3.6 5.1-5.8 7.2-12.5 11.6-14.7 27.8-18.1 43.2-1 4.8 0.9 10.3 1.6 15.4 3 21.8 6.1 43.5 11.6 64.9 6.5 25.2 16.5 49.1 26.8 72.8 7 16.1 14.5 32 21.7 48 0.2 0.4 0.6 0.6 0.9 0.9 1.4-0.3 1.2-1.5 1.2-2.5 0.3-20.9 1.8-41.9-0.8-62.8-1.8-14.8-3.7-29.7-5.5-44.5-5.8-48.5-8.5-97.2-5.8-146.1 1.1-20.6 3-41 6-61.4 4.6-32.2 10.3-64.3 17.8-96 1.2-5.2-0.5-10.6-0.6-15.9 0-1.7-1.6-1.6-2.7-1.9-5.1-1.3-10.2-2.9-15-5.2-7.1-3.5-12.1-9-15.3-16.3-0.6-1.2-1.5-2.7-0.3-4 1.4-1.5 3.1-1 4.5-0.1 4.6 2.8 9 5.7 13.5 8.6 1.4-2.2-0.3-3.3-0.9-4.6-4.8-9.2-7.5-18.9-6.6-29.3 0.2-3.3 0-7.3 3.7-8.5 3.7-1.3 5.7 2.3 7.8 4.8 4.9 6.2 8.5 13.1 11.4 20.5 0.7 1.8 0.8 4.1 3.2 5.7 0.4-2.2 0.8-4.1 1.2-6 1.6-7.9 3.8-15.7 7-23.2 0.6-1.5 1.3-3 2.2-4.4 2.1-3.1 4.8-3.1 6.8 0 1.6 2.4 2.3 5.3 2.8 8.2 1.8 10.4 3.4 20.8 1.1 31.4 2.2 0.9 2.9-0.7 3.8-1.5 7.7-7.4 17-12.1 26.8-15.7 5.1-1.9 7.4 0.2 6.4 5.8-1.1 6.3-4.4 11.6-8.1 16.5-2.4 3.3-5.3 6.2-8.8 10.2 3.3 0 5.8-0.1 8.3 0 4.1 0.1 8.2 0.7 11.9 2.5 4.9 2.3 5.2 5.5 1 8.8-3.5 2.6-7.4 4.3-11.4 5.8-6.2 2.3-12.6 3.4-19.2 3.8-4.8 0.3-9.4-0.7-13.2-3.7-2.3-1.8-3.7-1.8-5.7 0.1-1.5 1.5-3.5 2.2-5.5 2.4-3.9 0.4-5.5 2.8-6.4 6.4-3.1 12.5-5.3 25.1-7.7 37.8-2.2 10.9-4 22-5.9 33-0.2 0.8-0.3 1.6 0.4 2.2 0.3-0.1 0.9-0.2 1-0.5 6.7-12.5 14.5-24.6 15.4-39.5 0.1-1 0.3-2.1 0.6-3.1 1.2-4.3 4.2-5.9 7.8-4.4 3.9 1.7 5.4 5.4 3.5 9.1-1.3 2.7-3.3 4.8-5.9 6.2-1.8 0.9-2.8 2.2-3.4 4.1-3.6 10.9-9 20.9-15.1 30.5-5.8 9-8.3 18.7-9.5 29.2-2.7 22.7-4.6 45.4-5.1 68.2 0 0.9 0.1 1.7 0.2 2.4 1.2 0.4 1.7-0.4 2-1 10.4-19.6 21.8-38.6 30.6-59 2.8-6.5 4.8-13.1 5.6-20.2 0.5-5.4 1.3-10.8 3.1-15.9 1.9-5 4.4-6.6 8.1-5.4 4.1 1.4 6.3 6.1 4.8 10.7-1 3.2-2.9 6-5.5 8.1-4.7 3.8-6.9 8.7-8.5 14.6-2.7 10-7.7 19.1-12.4 28.4-2.2 4.4-4.5 8.7-6.8 13.1 1.8 1.3 2.8-0.3 3.8-0.9 7.1-4.5 12.6-10.5 16.1-18.3 1.1-2.5 2.4-4.8 3.7-7.2 1-1.6 2.1-3 3.7-4.1 2.4-1.5 4.7-1.1 6.8 0.6 2 1.7 2.1 4 1.1 6.3-1.3 3-3.6 5.2-6.4 6.3-4.7 2-8 5.3-11.2 9.2-5 6.2-11.6 10.4-18.5 14.1-2.6 1.4-4.4 3.3-5.9 5.9-4.7 8-8.4 16.6-13.8 24.2-1.1 1.4-0.9 3.1-0.9 4.8-0.4 26.6 1.1 53.1 3.5 79.6 2.2 25.2 6 50.2 8.6 75.4 0.7 6 0.9 12 1.3 18 0.2 2.2 0.5 4.4 0.7 6.6 2.3-0.2 2.4-1.9 2.9-3 9.1-19.6 15.9-40.1 22.4-60.6 0.7-2 1.1-4.1 1.8-6 6.1-16.2 6.4-33.1 3.6-49.7-2.3-14.1-8.2-27.1-21.2-34.8-3.9-2.3-6.5-5.7-8-10-0.6-1.9-0.5-3.7 1-5.1 1.5-1.3 3.2-1.7 5.2-1.1 3.9 1.2 6.3 4.7 5.5 9.8-0.5 3.5 0.4 5.3 3.2 6.9 3.8 2.2 6.4 5.7 8.8 9.4 0.8 1.4 1.1 3.2 3.1 4.1 0.4-3.9-0.6-7.4-1.1-11-1.6-12.2-4.5-24.1-9.5-35.3-0.8-1.9-1.5-3.9-1.8-5.9-0.5-3.1 0.2-5.8 3-7.6 2.4-1.5 4.8-1 6.9 0.6 2.5 1.8 3.3 4.6 2.7 7.7-0.5 2.4-1.5 4.7-2.9 6.8-1.3 1.9-1.2 3.6-0.5 5.8 6.7 18.7 8.3 38.4 10.2 58 0.3 3.1 0.6 6.1 1.4 9.8 2.1-3.9 2.5-7.6 3.3-11.1 8.5-39.3 17.2-78.6 25.4-117.9 3.5-16.7 6.2-33.5 9-50.3 0.9-5.2 1.3-10.5-0.8-15.8-0.8-2-1.5-3.1-3.7-2.9-4.1 0.2-8.2-0.4-12.1-1.4-6.9-1.9-12.7-5.6-17.5-10.9-1-1-1.8-2.3-2.4-3.6-0.9-2 0-3.3 2.2-3.1 2 0.2 4 0.7 5.9 1.5 5.3 2.1 10.5 4.4 15.8 6.6 0.7 0.3 1.4 0.9 2.5 0.1-4.8-6.5-8.5-13.5-10.1-21.5-0.8-4.3-1.2-8.7-0.6-13 0.3-2.7 1.9-3.6 4.3-2.5 1.4 0.7 2.7 1.9 3.9 3 5.6 4.8 10 10.8 14.3 16.7 2.1-0.7 1.8-2.4 2.1-3.7 1.5-6.7 3.3-13.3 6.2-19.5 1-2.2 1.7-5 4.9-4.9 3.5 0.1 4.7 2.9 5.6 5.7 2 6.6 2.9 13.3 2.9 20.2 0 2.1-0.4 4.2 0.4 6.3 2.2 0.3 3.1-1.7 4.5-2.7 5.2-4.1 10.9-7.3 17.3-8.9 5.4-1.4 7.9 0.9 7 6.5-1.4 7.9-5.3 14.3-11.4 19.3-1.7 1.5-3.6 2.8-5.3 4.1 0.7 2.3 2.7 1.6 4.1 2.1 3.8 1.1 7.3 2.6 10.5 4.9 1 0.8 2.1 1.6 1.7 3-0.5 1.3-1.8 1.7-3 1.8-5.3 0.4-10.6 0.9-15.9 1.2-6.3 0.5-12.6 0.7-18.5-2.4-0.8-0.5-1.9-1.1-2.8-0.1-2.7 3-6.2 5.4-7 9.9-2.9 17.1-5.8 34.3-8.8 51.5-0.1 0.8-0.2 1.6 1 2.9 5.2-9.1 14.1-15.5 15.3-26.9 0.3-3.5 1.8-6.8 4.6-9.3 2.8-2.4 6.6-2.6 8.9-0.6 2.3 2 2.6 5.1 0.6 8.5-1.5 2.8-3.5 5.9-6.3 6.5-4.6 1-5.9 4.6-8.1 7.6-5.2 7-10.1 14.1-14.5 21.6-4.4 7.5-6.5 15.7-8.4 24-8.7 38.8-17 77.7-26 116.4-7.4 31.6-17.7 62.2-31.4 91.5-1.7 3.7-2.7 7.8-5.8 10.8-1.5 1.5-0.9 4-1 6.1-1.5 22.2-1.2 44.3 1 66.5 2 20.3 4.8 40.4 8 60.5 0.3 2 0.9 4 1.3 6 1.2-0.1 1.5-1 1.8-1.7 5.6-16.9 12.1-33.4 19.3-49.6 3.1-7.1 3.4-13.6 0.3-20.9-6.1-14.1-9.9-29-10.8-44.5-1-18 3.2-35 9.1-51.8 0.6-1.8 1.5-3.5 3.8-3.1 2.2 0.4 3 2 3.2 4 0.7 6.6 1.6 13.2 2.1 19.8 1.2 18.7 1 37.4 0.5 56.1-0.1 5.7 0 11.4 0 17.3 2.3-0.5 2.4-2.2 2.9-3.4 6.8-15.3 13.8-30.6 21.3-45.5 1.3-2.5 1.1-3.9-0.7-6.4-2.6-3.6-3.2-8.5-3.8-13-3.5-22.7-3.7-45.4 0.4-68.2q2.9-16.2 5.8-32.4c0.3-1.2 0.6-2.4 0.9-3.6 0.4-1.5 1-2.9 2.7-2.9 1.5 0.1 2.8 0.9 3.3 2.4q1 2.6 1.7 5.3c7.6 28.5 9.2 57.3 3.4 86.3-0.2 1-0.4 2.1 0.1 3.1 1.5-0.2 1.8-1.5 2.3-2.5 9.9-19.7 17.9-40 23.7-61.3 0.7-2.6 0.5-4.5-1.1-6.9-7.4-11.2-14.3-22.7-18.8-35.5-6.1-17.5-8.2-35.5-7.3-53.9 0.1-2.3-0.5-5.6 2.9-6.1 3.2-0.5 3.8 2.5 4.7 4.8 7.6 19.7 15.5 39.3 20.7 59.8 1.3 5.2 2.2 10.5 3.4 16.5 2.1-3.6 2.2-6.9 2.9-10.1 3.8-18.9 7.9-37.7 10.9-56.8 1-6.3-1.5-12.2-2.5-18.3-0.4-2.3-2.8-1.9-4.6-2-6.9-0.7-13.7-1.8-20.3-4.2-6.6-2.3-11.8-6.4-14.6-13.2-0.7-1.7-1.7-3.6-0.2-5.3 1.6-1.9 3.7-1 5.6-0.2 5.4 2.3 10.8 4.7 16.3 7 1.6 0.7 3.3 1.1 5.1 1.7 0.1-1.4-0.5-2-1-2.6-10.8-11.6-13.9-25.9-13.6-41.3q0-1.3 0.3-2.5c0.3-1.9 0.4-3.9 2.6-4.5 2.3-0.6 3.7 0.9 5 2.7 7 10.2 12.7 21.2 18.2 32.3 0.9 1.8 1.3 3.9 3.6 5.5 0.9-2.8 0.7-5.2 0.8-7.6 0.6-10.4 1.7-20.7 6.2-30.3 1.1-2.5 1.7-6.1 5.4-5.8 3.8 0.3 4.5 3.8 5.3 6.8 2.4 9.5 2.9 19.2 1.8 29.4 2.6-0.7 3.2-3.1 4.4-4.7 4.5-6.3 9.9-11.6 16.7-15.1 1.8-1 3.6-2.2 5.8-0.8 2.4 1.5 1.9 3.9 1.7 6.1-0.8 7.4-4 13.9-7.7 20.1-1.2 2-2.5 3.8-3.7 5.8 2.1 1 3.5-0.5 5.2-1.1 5.6-1.9 11.2-3.6 17.2-3.3 1.1 0 2.1 0.1 3.1 0.2 7.4 1.2 8.5 3.8 3.7 9.6-7.3 8.7-16.3 14.2-27.7 15.3-6.3 0.6-12.6 1.3-18.9 1.1-2.3 0-3.5 0.5-4.1 3.2-1.2 5.1-3 10.1-8.7 11.8-1.4 0.4-1.8 1.7-2 2.9-3 21-7.4 41.7-11.2 62.5 0 0.3 0.2 0.7 0.4 1.1 1.8 0.1 2.2-1.6 2.9-2.7 14.7-23.2 33.1-43.1 53.4-61.3 1.5-1.4 2.9-3.2 5.2-1.6 2.3 1.6 1.2 3.6 0.8 5.6-1.2 5.1-3 9.9-5 14.7-8.3 19.5-19.7 36.8-34.1 52-8 8.5-18.1 14.1-27.7 20.5-2.1 1.4-3.7 2.9-4.5 5.5-4 13.9-9.1 27.5-14.9 40.7-0.4 0.9-1.1 1.8-0.4 3 1.6 0 2.3-1.4 3.2-2.3 15.4-16.3 33-29.7 51.3-42.1 4.3-2.9 8.6-5.7 12.8-8.7 1.6-1.2 3.3-1.6 4.9-0.1 1.6 1.3 0.8 3 0.3 4.6-1.4 3.7-3.4 7.1-5.7 10.3-12.4 17.3-26.5 33.1-43.4 46.1-10.7 8.1-22.5 14.2-34.7 19.4-2.5 1.1-4.5 2.4-5.9 5-12.9 25.4-25 51.3-35.8 77.8-0.3 0.7-0.9 1.3-0.5 2.2 1 0.5 1.5-0.2 2.1-0.7 16.1-15.3 34.3-27.2 54.8-35.6 4.3-1.8 8.6-3.7 12.9-5.5 1.9-0.8 4-1.9 5.7-0.1 2 2 0 3.8-0.9 5.5-7.1 13.6-18.1 23.4-30.3 31.9-11.5 8-23.7 14.5-37 19q-2 0.6-4 1.3c-8.5 3-15.1 7.6-17.6 17.2-1.6 6.2-4.4 12-6.6 18.1-3.6 9.9-4 20.1-2.8 30.5 0.7 5.8 1.3 11.6 1.9 17.4 0.1 0.8 0.1 1.6 0.1 2.5 0 1.5 0.5 3.7-1.9 3.8-2.1 0.1-1.6-2.1-1.7-3.3q-1.7-13.6-3.2-27.3c-0.4-3.4-1.5-6.4-3.6-9-9.3-11.6-18.4-23.3-28.5-34.2-3.2-3.5-6.6-5.1-11.1-5.2-14.3-0.6-28.4-2.2-42.5-4.6-18.8-3.3-36.5-9.8-53.8-17.9-0.6-0.3-1.1-0.6-1.6-0.9-0.9-0.5-1.9-1.1-1.8-2.3 0.1-1.5 1.6-1.8 2.8-1.8 6.1 0 12.2-0.1 18.3 0.1 22.8 0.6 44.8 5.3 66.5 12.1 1.3 0.5 2.5 1.4 4.7 0.5-4.9-5.7-9.4-11.5-14.4-16.8-1.5-1.7-3.1-3.2-4.2-5.2-2.4-4.6-6.1-7.4-10.7-9.6-8.7-4.2-18.1-6.5-27-9.9-12.4-4.7-23.6-11.2-34.2-19.1-12.1-8.9-23.8-18.1-35.3-27.8-0.8-0.7-1.6-1.3-2.3-2-0.6-0.6-1.2-1.4-0.6-2.2 0.5-0.5 1.4-0.9 2.1-0.9 1 0 2 0.3 2.9 0.8 23.2 11 46.5 22 69.7 33.2 5.1 2.4 10 5.4 15 8.2q0.4-0.4 0.9-0.8zm251.5-206c-18.5 13.2-54.7 58.5-56 71.1 1.4-2 2.1-3.1 2.9-4 9.1-10.4 18.3-20.6 26.9-31.4 1.3-1.7 2.9-4.8 5.2-2.8 2.2 1.9-1 3.5-2.1 4.9-8.7 11.2-18.1 21.8-27.5 32.5-1.2 1.5-2.9 2.7-3.4 5.1 18.5-8.3 49.2-51 54-75.4zm-102.1 61.3c-6.7 31.2-11.8 61.4-6.6 92.6 1.8-1.1 1.3-2.5 1.4-3.6 0.5-7.1 0.8-14.1 1.3-21.1 0.7-10.6 1.5-21.1 2.4-31.7 0.2-1.8-0.2-4.9 2.7-4.6 2.7 0.2 1.3 3 1.2 4.6-0.9 16.8-1.9 33.5-3 50.3-0.3 3.7-0.8 7.3-0.2 11.4 9.3-24.6 10.4-70.4 0.8-97.9zm-175.2 81.9c-5.9-14.8-53.9-54.6-67.5-56.3 14.4 23.4 30.3 45.1 57.2 55.4-0.1-1.5-0.8-1.9-1.4-2.3-6.4-4.7-12.8-9.5-19.4-14.1-5.5-3.9-10.9-7.9-15.4-13.1q-1.4-1.6-2.6-3.4c-0.5-0.8-0.5-1.6 0.2-2.3 0.8-0.8 1.8-0.8 2.7 0 0.7 0.6 1.3 1.5 2 2.3 2.8 3.3 5.9 6.4 9.4 8.9 11.1 7.9 22.5 15.6 33.2 24.2 0.4 0.3 1 0.4 1.6 0.7zm211.5 67c-28.1 9.6-52.5 24.9-73.1 48.3 3.4-0.4 4.9-1.9 6.5-3 12.1-8 24.1-16.2 36.2-24.3 2.4-1.5 4.8-3.1 7.3-4.5 1.3-0.7 2.7-0.7 3.4 1.6-6.5 4.5-13 9-19.5 13.6-6.4 4.3-12.8 8.6-19.1 13q0.4 0.6 0.8 1.2c22.7-10.7 44.1-23 57.5-45.9zm50.7-122.7c-27.6 17.5-53.3 37.1-73.2 63.7 2.5-0.4 4.2-2.1 6.1-3.4 14.5-10.8 28.7-21.9 41.3-35 1.4-1.3 3.1-4.1 5-2.1 1.9 2.2-1.4 3.4-2.6 4.7-9.5 10.2-20.1 19.3-31.2 27.8-1.4 1-3.3 1.8-3.9 4.3 16.9-7.6 52.1-43.5 58.5-60zm-239-23.1c-7 26-14.2 50.9-9.6 78.6 0.7-2 1.1-2.9 1.3-3.9 1.4-8.2 2.9-16.3 4.2-24.5 0.8-5.1 1.5-10.3 2.2-15.4 0.2-1.5 0.8-3 2.5-2.8 2.2 0.2 1.5 2 1.4 3.3-0.8 8.5-2 16.9-3.5 25.3-1.4 8.1-3.2 16.1-3.9 24.6 0.7-0.4 1.1-0.4 1.4-0.7 0.4-0.5 0.7-1 0.9-1.6 4.1-8.4 6.5-17.4 7.4-26.8 1.3-13.3-0.3-26.5-1.7-39.6-0.6-5.1-0.3-10.4-2.6-16.5zm-40.9 184.5c26.8 13.6 55.4 18.7 84.9 20.1-5.6-3.1-11.7-4.4-17.8-5.6-11.5-2.4-23.3-3.7-35-4.9-1.1-0.1-2.5 0.2-2.7-2.4 14.8-0.6 29.1 2.9 43.6 4.2-23.7-7.8-47.8-12.7-73-11.4zm144.6-487c15.5-2 23.2-5.6 31-14.7 4.7-5.6 8.7-11.7 10.8-19.9-18.9 6.1-31.2 18.3-41.8 34.6zm-64.8 35.1c-12.4 4.4-30.2 29.5-29.9 42.2 18.4-8.4 32.4-28.1 29.9-42.2zm-25.9 46.4c2.2 5.6 6.7 5.9 10.9 5.6 12.1-1 21.7-7.6 30.3-15.7 2.2-2 1.7-3.5-1-4.5-2.7-1.1-5.5-1.4-8.4-1.1-7 0.6-13.5 3.1-19.1 7.3-3.9 3-7.9 5.8-12.7 8.4zm-66.4 184.3c2.1-16.8-5.1-29.6-12.4-37.3-1.1-1.2-2.5-2.1-3.9-3-1.5-1-2.6-0.3-3.4 1.2-1.1 1.9-1.2 4-1.2 6-0.2 7.1 2.1 13.4 6.4 19 4.1 5.2 8.8 9.7 14.5 14.1zm159.7-321.9c-8.8 10.5-13.3 42.1-8 53 13.5-15.9 12.1-33.9 8-53zm-105.8 132.6c4.7-5.1 6.7-10.3 7.4-15.7 1.6-12.3 0.1-24.4-3.8-36.1-0.6-1.6-0.8-3.7-3.7-4.2-4 18.3-4.2 36.5 0.1 56zm-97.5 172.7c6.4 11.5 13.5 19.9 24.9 23.6 4.2 1.4 8.7 1.9 13.2 1.7 1.4-0.1 2.4-0.5 2.9-1.9 0.3-1.2-0.5-1.8-1.3-2.5-7.4-5.9-14.6-12.1-23.1-16.2-4.8-2.2-9.6-4.2-16.6-4.7zm365-56.2c-2.9-1.8-5.3-1.7-7.7-1.3-6.8 0.8-13.1 3-19 6.3-6.1 3.4-12.1 6.8-18.1 10.3-1.1 0.6-2.8 0.6-2.8 2.9 8.4 0 16.7 0 24.8-1.8 9.6-2.2 16.7-8.1 22.8-16.4zm-196.4-245.8c-5.4 14 5.1 40.1 19.2 47.4-0.1-14.5-10.7-40.7-19.2-47.4zm-118.2 317.8c3.3-5 5.9-10.1 7.4-15.6 2.7-9.9 2.3-19.7-0.6-29.4-0.5-1.7-0.9-4-3.1-4.1-2-0.1-2.9 2.1-3.7 3.7-2 3.9-2.6 8.2-2.9 12.6-0.6 11 1.2 21.8 2.9 32.8zm-22.3 150.5c20.3 16.3 39.5 31.9 64.2 38.2-5.3-5-12.2-7.2-18.4-10.5-6.3-3.4-13.2-5.7-19.5-10.2 2-1.8 3.4-1.4 4.6-0.8 12.8 6.5 26.2 11.5 38.4 19.1 1 0.6 2 2.2 3.6 0.8-7.3-6.9-61.9-34.7-72.9-36.6zm248.9-260.1c-3.1 15.4 4.9 41.9 25.1 48.4-7.5-16.7-15-32.7-25.1-48.4zm-71.1-150.2c2.8 3.6 5.6 6 9.5 6.3 11.5 0.7 22.1-2.4 31.9-8.6 0.9-0.6 1.8-1.3 1.7-2.4-0.2-1.6-1.7-1.6-2.8-2-2.9-1-6-0.8-9-0.9-10.9-0.5-20.6 4-31.3 7.6zm54.8 225.8c-1.4 15.5 0.8 30.5 6 45.7 1.5-2.6 0.1-4.3-0.2-6-0.5-2.5-1.2-4.9-1.6-7.3-0.2-1.1 0.2-2.1 1.5-2.2 1-0.1 1.4 0.8 1.6 1.5 0.5 1.2 0.7 2.4 1 3.6 2.9 10 6.5 19.7 10.4 29.2 0.6 1.3 0.7 2.8 3 3.6-3.5-24.1-12.7-46-21.7-68.1zm-46.9 210.9c1-21.5 1.8-43-1.3-65.1-8.5 14.8-10.7 54-3.6 65.8-0.2-2.4-0.5-4.2-0.6-6.1-0.8-8.2-1.6-16.5-1.5-24.8 0-1.5-0.8-3.9 1.4-4.1 2.5-0.2 1.8 2.3 2 3.8 0.4 4.5 0.5 9.1 0.9 13.6 0.4 5.7 0.6 11.4 2.7 16.9zm130.1-276.4c-10.5 4.3-27 27.5-28.3 39.7 13.4-5.4 27.9-25.8 28.3-39.7zm-42.5-117.4c-14 4-25.9 15-29.7 27.2 15 0.2 29.3-12.7 29.7-27.2zm6.7 155.1c8.3-11.9 10.9-41.2 4.8-51-6.3 10.8-9.1 39.5-4.8 51zm-38.7-172.7c-6.4 13.8-11.5 27.9-5.3 43.7 12.2-13.6 8.7-28.7 5.3-43.7zm-178.7 42.9c-3.1-17-12.1-30.8-22.7-43.8 1.8 17.7 7.7 33.2 22.7 43.8zm32 314.9c-5.9 13.2-7.4 59.3-2.7 69.9 0-8.4 0-16.4 0-24.4 0-1.7 0-3.3 0.2-5 0.1-1.2 0.6-2.7 2-2.7 1.7 0 1.5 1.6 1.5 2.8 0 2.7 0 5.4 0 8.1 0.1 3.3 0.3 6.6 0.4 9.9q0.3 4.9 0.6 9.7c1.5-22.4 1.3-44.7-2-68.3zm133.7-315.3c0.6-12.6-8.9-30.1-18.2-34-1 14.2 6.9 29.1 18.2 34zm-198.8 193.2c12-5.8 20-14.5 21.3-29.6-10.7 8.1-17.2 17.9-21.3 29.6zm94.3 174.9c-2.2 10.4-3.5 20.8-3.1 31.4 0.1 1.2-0.5 3.4 1.9 2.9 3.2-0.5 2.7 1.6 2.8 3.4 0 2.3 0 4.6 0.1 6.9 0 2 0.2 4 0.2 6 2.7-17.1 1.2-33.9-1.9-50.6zm111.8-246.4c4.6 10.5 21.6 17.7 34.4 15-4.9-4.3-17.6-9.9-34.4-15zm-223.7 85.6c-10.5-1.5-19.4 1.7-27 9-0.8 0.8-1.4 1.7-0.8 2.7 0.5 0.8 1.4 0.8 2.2 0.5 9.3-2.3 18-6 25.6-12.2zm258.1-197.9c-9.2-5.8-19.2-3.3-29-2.2 9.1 7.4 19.2 2.8 29 2.2zm-211.2-3.2c-6.5-6.4-15-8.6-23.2-11.4 6.2 7 13.3 12.3 23.2 11.4zm94.2-81.9c-5.2-5.8-17.3-13.8-22.5-15 4.9 8.9 12.7 12.7 22.5 15zm-82.5 83.2c-1.4 0.4-4.3-1.1-3.7 2.1 0.6 2.7 2.5 5.2 3.8 7.7 0.3 0.6 1 0.6 1.6 0.5 2-0.4 5.5-3.8 5.3-5.6-0.3-2.6-2.7-3.3-4.5-4.4-0.6-0.4-1.6-0.2-2.5-0.3zm126.3-13.7c5.3 6.7 12.7 10.1 20.4 9.2-4.9-4.3-15.1-8.9-20.4-9.2zm79 150.6c0.1 3.7 1.5 6.8 3 7 1.7 0.3 4.7-4.7 4.3-7.3-0.4-2.8-2.8-2.4-4.7-2.6-2.2-0.3-2.8 1.1-2.6 2.9zm-94-106.1c3.7-3.8 6.4-6.4 6.6-10.7 0.1-1.5-0.2-3.1-1.9-3.4-1.4-0.3-2.1 0.8-2.6 2-1.5 3.4-2.5 6.8-2.1 12.1zm-10-105.5c-2-1.4-4.7-0.7-6.7-2.1-1-0.7-2.1-0.2-2.4 0.9-0.3 1.8-0.7 3.7 0.6 5.3 1.3 1.5 3 0.8 4.5 0.2 1.8-0.8 3.6-1.7 4-4.3zm-70.2 125.4c-2.1 4.5-3.1 8.2-2.5 12.5 4.7-4.2 5.1-6 2.5-12.5zm72.5 69.3c0.9-2.6 2.7-4.8 0.8-7.5-0.3-0.4-1-0.8-1.5-0.3-2.5 2.2-1.6 4.7-0.6 7.2 0.1 0.1 0.3 0.2 1.3 0.6zm68.8-76.7c3.3-1.5 4.9-3.6 5.9-6 0.4-0.7 0.6-1.7-0.1-2.3-0.8-0.6-1.5 0-2.1 0.5-2.1 1.8-3.1 4.2-3.7 7.8zm-12.3-38.2c2.1-2.1 4.4-3 3.4-5.8-0.4-1-1.7-1.3-2.6-0.9-2.9 1.3-1.7 3.5-0.8 6.7zm-199.1 32.6c-2.6 6.4-2.6 6.4-0.1 10.4 0.7-3.2 1.5-6.1 0.1-10.4zm82.8 51c2.6-1.5 5.8-2.4 6.4-7.4-3.8 1.9-5.8 4-6.4 7.4zm-103-20.6c-1.2 5-1.2 5.2 3.1 7.2-0.6-2.7-0.8-5.2-3.1-7.2zm158.7-92.8c0.9-0.5 1.3-0.7 1.6-1 1.1-1.4 2.3-2.9 1.2-4.9-0.3-0.6-1-0.9-1.5-0.6-1.5 1.1-1.7 2.8-1.8 4.4 0 0.6 0.3 1.2 0.5 2.1zm19.5 86.4c-2 0.9-3.4 2.3-3.9 5.3 2.8-1.1 3.9-2.7 3.9-5.3zm-165.5 133.4c-0.1-1.1-0.9-1.9-2.3-2.1-1.1-0.1-1.5 0.9-1.4 1.6 0.3 1.3 0.9 2.8 2.6 2.7 0.9 0 1.1-1 1.1-2.2zm135.8-47.3c0.5-2.7 0.7-4.5-1.8-5.4-1 2.2 0.1 3.5 1.8 5.4zm82.8 57.8c0.4-2.2-0.4-3.2-1.9-5.1 0.2 1.6 0.2 2.2 0.4 2.7 0.3 0.7 0.8 1.3 1.5 2.4z"/>
		<path id="Flower" class="s2" d="m959.8 1597.5q1.4-2.7 2.9-5.4c0.5-0.9 1.3-2 0-2.7-1.1-0.6-2.1 0-2.7 1-1.3 2-2.7 4-4.3 6.5-1.2-2.3-0.3-4.2-0.4-6 0-1.2 0.2-2.4 0.3-3.6 0.1-1.3 0-2.7-1.7-2.7-1.3-0.1-1.5 1.1-1.7 2.2-0.4 2.9-0.8 5.8-1.3 9-1.7-1.2-1.6-2.8-2-4.3q-0.4-1.8-0.9-3.6c-0.3-1.2-1.1-1.8-2.3-1.6-1.4 0.2-1.3 1.3-1.1 2.4 0.8 4.7 1.6 9.4 3.3 13.9 0.3 0.8 0.5 1.6 1 2.9-2.9 1.1-5.8 2.2-7.1 5.4-1.5 3.8-1.6 7.8-0.3 11.4 3.9 10.8 3 21.9 3.3 32.9 0.3 13.9 0.2 27.9-0.7 41.8-1.8 24.3-7.6 47.6-17.4 69.8-2.1 4.8-3.9 9.7-7.4 14-0.1-3.6-0.5-7.2-0.4-10.8 0-30.4-4.7-60.1-12.3-89.3-0.7-2.6-1-5.1-0.6-7.8 1.6-11.2 3.1-22.4 4.5-33.5 3.1-24 0.9-47.5-4.7-70.9-1.3-5.3-2.4-10.6-4.4-15.7-0.9-2.1-0.8-4.2-0.1-6.2 1.7-4.5 1.1-9 0.6-13.6-0.5-4.2-2.8-7.1-7.2-8.5 2-4 4.8-7.1 7.2-10.4 0.6-0.7 1.8-1.6 0.7-2.6-1-0.9-2-0.3-2.8 0.5-1.5 1.4-2.4 3.4-4.6 4.5-0.5-2.5 0.6-4.6 1.3-6.7 0.3-1 0.9-2.1-0.4-2.6-1.1-0.5-2.1 0.1-2.7 1.1-0.8 1.5-1.4 3.1-2.1 4.8-1.4-1.4-1.4-3.1-2-4.5-0.5-1.1-1.2-1.9-2.4-1.5-1.4 0.3-1.4 1.5-1.1 2.5 0.8 3.2 1.6 6.4 2.6 10.1-2.6-0.6-3.7-2.5-5.2-3.8-0.9-0.8-1.7-1.7-2.7-2.4-0.8-0.4-1.8-0.2-2.4 0.6-0.5 0.6-0.1 1.3 0.4 1.8 2.3 2.9 4.9 5.5 8 7.5 0.7 0.5 1.4 1 2.5 1.7-2.4 1.9-4.3 3.8-4.6 6.8-0.3 3.3 0.7 6.3 2.2 9.1 1.7 3 3.9 5.5 6.8 7.2 3.1 1.9 4.5 4.8 5.4 8 2.8 9.3 4.7 18.8 6.4 28.4 4.8 26.5 2.9 52.9-2.2 79.6-1.7-1.2-1.8-3-2.2-4.6-7.7-26-18.2-51-29.9-75.4-4.5-9.4-9.8-18.3-15.1-27.2-2.3-3.7-3.6-7.5-4.5-11.6-2.1-10-2.7-10.8-10.9-15.7 1.8-4 2-8.4 2.7-12.7 0.2-0.9 0.1-1.8-1-2-1 0-1.7 0.6-1.9 1.5-0.9 2.7-0.9 5.6-2.3 8.5-1.9-3.2-1.5-6.8-2.5-9.9-0.3-1-0.4-2.3-1.7-2.3-1.7 0.1-1.6 1.5-1.5 2.8 0.3 2.5 0.6 5.1 0.9 8.2-2.7-1.5-4-3.7-5.7-5.3-0.9-0.9-1.5-2-2.7-2.4-1-0.2-1.8 0-2.3 0.8-0.6 0.7-0.1 1.3 0.4 1.8 2.7 3.2 5.4 6.4 8.6 10.1-5.6-0.1-9.7-5-15.7-3.2 2.3 2.7 5.1 3 7.3 4.2 1.6 0.9 3.4 1.7 5.2 2.3 2.6 0.8 3.9 1.8 3.2 5.2-1.1 5.4 1.5 9.5 6.2 12.2 2.2 1.2 4.5 2.2 6.9 2.3 3.8 0.2 5.9 2.4 7.7 5.4 7.9 14.1 15.6 28.3 22.3 43.1 12.8 28.2 22.7 57.5 30 87.7 0.5 1.8 1.5 3.6 0.6 5.7-1.7-0.1-2.1-1.7-2.9-2.7-15.5-20.5-28.7-42.5-41.5-64.7-2.1-3.6-3.6-7.6-4.4-11.7-0.9-4.8-3-9-6.6-12.4-2.3-2.2-5-3.8-8.3-3.8-2.3-0.1-3.1-1.1-3.2-3.2-0.2-2.1-0.4-4.2-0.7-6.3-0.1-1.1 0.4-2.8-1.5-2.8-1.9 0.1-2.1 1.5-2 3 0 0.9 0 1.8 0 2.9-2-0.1-2.5-1.8-3.5-2.8-0.9-0.8-1.8-1-2.8-0.2-1.1 0.8-0.7 1.7-0.1 2.7 0.8 1.5 2.4 2.5 2.6 4.4-3.2 0.3-5.6-4.5-9.1-1.2 1.4 2.9 4.8 2.9 6.7 5.6-2.4 0.6-5.3-0.9-7.4 2.1 3.8 1.7 7.8 1.1 11.4 1.6 1.1 12.8 7 18.8 19.6 19.5 3.5 0.2 4.8 2 6.3 4.5 9.6 16.8 19.4 33.4 30.4 49.3 5.9 8.5 12.1 16.8 18.7 24.8 1.2 1.4 1.5 3 1.9 4.7 4 18.3 5.6 36.9 6.3 55.6 0.6 16 1 32.1 0.4 48.1 0 1.7 0.4 3.5-0.8 5-0.2 0-0.5 0-0.5-0.1-8.2-17.8-19.8-33.5-30.5-49.7-11-16.7-18.9-34.9-26.4-53.4-1-2.5-0.9-5.1-0.8-7.8 0-4.4 0.1-8.8-1.2-13.1-1.3-4.1-3.1-8-7.3-9.8-1.8-0.8-2.1-2-2.1-3.7q0-2.6-0.3-5.3c-0.1-1.1-0.6-2-2-1.9-0.9 0.1-1.5 0.7-1.7 1.7-0.1 1 0.4 2.1-0.6 3-1.8-0.6-1.9-2.8-3.4-3.7-0.9-0.5-1.7-0.4-2.4 0.1-0.9 0.7-0.9 1.4-0.4 2.3 0.7 1 1.6 1.9 1.7 3.5-2.6 0.8-5.2-3.6-7.9 0 1.8 2.4 5.2 2.8 7.1 5.3-2.4 1.6-5.7-1-7.6 2.1 1.6 1.9 3.6 1.3 5.4 1.5 1.6 0.2 2.6 0.5 2.6 2.5-0.2 8.6 5.4 13.4 11.7 17.4 2.7 1.7 4.4 3.7 5.6 6.5q4 10.4 8.3 20.6c5.8 14 13.7 26.9 22 39.5 0.9 1.3 2.1 2.3 2.4 4.4-2.2-0.1-3.5-1.5-5-2.5-8.7-6.2-16.5-13.6-23.9-21.2-1.6-1.7-3.1-3.4-4.8-4.9-2.5-2.4-4.3-5-5.3-8.3-1-3.3-2.4-6.3-4.5-9-2.5-3.3-5.5-6-9.9-6-2.7-0.1-3.1-1.6-3-3.8q0.1-3.9 0.1-7.9c0-1.1-0.1-2.3-1.6-2.1-1.1 0-2 0.7-2.1 1.9-0.1 1.4-0.2 2.8-0.3 4.5-2.2-0.5-2.3-2.5-3.4-3.6-0.9-0.8-1.8-1-2.9-0.4-1.2 0.8-0.7 1.6-0.1 2.6 1.3 2.4 2.5 4.9 3.9 7.7-2.7 0.6-4.4-1-6.4-1.4-1.3-0.3-2.6-0.4-3.1 1-0.5 1.5 1.1 1.5 1.9 2 1.7 0.9 3.9 1.1 5.6 2.7-2.6 2.2-6.5 1.6-9.3 4.8 3.6 1.1 6.1-1.1 8.9-1.1 3.8 10.5 11.8 14.5 22.3 14.2 2.2-0.1 3.5 0.9 4.8 2.4 5.4 5.5 10.6 11.2 16.2 16.5 7.6 7 15.1 14.1 25.2 17.4 1.3 0.4 1.9 1.4 2.6 2.5 4.6 7 9.2 14 13.4 21.4 4.6 7.8 7.1 16.4 8.9 25.2 0.5 2.4 0.3 4.9 0.1 7.4-1 17.4-1.9 34.8-5.1 52-0.7 3.5-1.6 7.1-2.4 10.9-1.4-1.7-1.4-3.3-1.6-4.9-3-19.9-10.7-37.8-22.1-54.2-7.7-11.1-15.6-22-23.5-33-2.1-2.9-3.8-5.7-4.1-9.5-0.3-3.7-1.4-7.3-3-10.6-2.2-4.5-5.2-8-10.2-9.1-2.1-0.4-2.9-1.4-3.2-3.4-0.3-2.8-0.9-5.6-1.4-8.4-0.2-1-0.6-2.1-2-1.9-1.2 0.1-1.7 1-1.6 2.2 0 1.2 0 2.4 0 3.9-1.7 0-2.2-1.5-3-2.4-0.9-0.9-1.6-1.9-2.5-2.7-0.7-0.5-1.7-0.4-2.4 0.2-0.9 0.8-0.4 1.6 0.1 2.3 1.6 2.4 3.5 4.6 4.8 7.5-4.6 0.3-7.4-5.3-12.5-2.7 3.1 3.2 7.1 4.2 10.7 6.8-3 1.9-6.8-0.2-9.7 2.8 4.2 1.5 8.2 0.2 12.2 1.2-0.3 3.4-0.8 6.9 1.6 9.9 3 3.9 7.2 6.6 11.7 7.4 6.1 1 9.2 4.7 12.3 9.4 7.4 10.9 15.1 21.6 22.6 32.4 1.9 2.7 3.5 5.6 5.3 8.4-1.6 1.3-2.5 0-3.4-0.6-10.4-6.8-19.8-14.8-29.7-22.4-0.8-0.6-1.4-1.5-2-2.4-4.7-7.4-11.7-10.7-20.2-10.6-2.3 0-3.6-0.5-4.6-2.5-1.2-2.4-2.5-4.6-3.8-7-0.6-1.2-1.5-1.9-2.9-1.3-1.7 0.8-0.9 1.9-0.4 3.1 0.5 1.1 1 2.2 1.7 3.8-2.1 0.2-3.1-1.2-4.3-1.8-1.2-0.7-2.3-1.6-3.5-2.3-0.9-0.5-1.8-0.3-2.4 0.4-0.8 0.9 0 1.6 0.7 2.1 1.8 1.5 3.7 3 5.9 4.7-2.2 1.7-5.2-0.7-6.8 2 2.9 2.4 6.9 1 10 3.2-3.6 1.8-7.6 0.9-11.9 3.4 4.8 1.4 8.4 0.2 12.4-0.3 0.5 5.3 3.5 8.8 8.4 10.7 5.9 2.3 12 2.5 17.7-0.3 3.4-1.7 5.5-1.4 8.2 1 10.3 9 21.3 17.1 33.1 23.9 1.8 1 2.9 2.5 3.7 4.3 7.2 14.9 10.7 30.8 12.1 47.3 0.3 3.2-0.9 6.2-1.9 9.2-4.9 14.1-11.6 27.2-19.1 39.9q-9.8 16.6-18.5 33.8-0.5 0.9-1 1.8c-0.4 0.8-0.8 1.7 0.1 2.4 1 0.7 2 0.5 2.8-0.5 0.4-0.5 0.8-1.1 1.1-1.7 8.8-17.4 19.6-33.8 28.4-51.2 6.7-13.2 11.9-27 15.1-41.5 0.9-3.9 2.6-7.2 5.1-10.2 10-11.8 20.1-23.5 27.8-37 3.1-5.5 6.1-11.1 8.6-16.9 1-2.2 2.4-3.6 4.4-4.9 17.8-10.6 34.2-23 47.7-38.9 1.6-1.9 3.1-2.5 5.4-2.3 3.7 0.3 7.3-0.4 10.7-1.8 6.1-2.3 9-6.7 9.2-13.3 0.1-4.1 0.2-4.3 4.2-4.7 2.1-0.3 4.2-0.2 6.3-0.3 0.9-0.1 1.9-0.1 2-1.2 0.1-1.3-1-1.7-2.1-1.8-1.1 0-2.1 0-3.2 0-1 0-2 0-3.5 0 0.8-2.6 3.1-2.9 4.5-4.2 0.6-0.5 1.1-1 0.7-1.8-0.4-0.6-1.1-1.2-1.7-1-1.5 0.4-2.9 1-4.3 1.5-0.9-1.2 0.1-2 0.5-2.8 0.5-1.2 0.4-2.1-0.6-2.8-1.3-0.8-2.3-0.3-3 1-0.4 0.8-1 1.5-1.4 2.1-1-0.1-1.1-1-1.5-1.4-1.9-2-2.8-1.8-3.3 0.7-0.5 2.1-0.7 4.2-1.1 6.4-0.5 0.8-1.4 0.5-2.2 0.5-4.4-0.1-7.7 1.9-10.3 5.3-3.2 4.3-5.3 9.1-5.9 14.5-0.4 3.3-1.9 5.9-4.1 8.3-11 11.9-23.7 21.7-36.9 30.8-1.9 1.3-3.8 2.5-5.6 3.7-1.2-1.6-0.1-2.6 0.3-3.6q10.4-27.2 15.9-55.8c0.6-3 1.5-4.7 4.9-4.9 4-0.3 6.5-3 8.2-6.6 3.1-7.1 2.8-12.6-1.3-18.1 2.3-2.2 5.4-3 7.9-4.7 0.9-0.6 2.1-1.1 1.4-2.3-0.6-1-1.8-1.2-2.8-0.9-1.8 0.5-3.2 2.1-5.3 2 0-1.9 1.5-2.8 2.3-4.1 0.5-0.9 1.3-1.8 0.1-2.7-1-0.7-2-0.5-2.9 0.3-1.5 1.3-2.3 3.5-4.6 4.6-0.9-1.9-0.2-3.8-0.2-5.6 0-1 0.2-2.1 0-3.1-0.2-1.2-1.1-1.8-2.2-1.7-1.1 0-1.3 1-1.4 1.9-0.2 2.4-0.3 4.8-0.5 7.7-2.4-1.1-2.4-3.4-3.5-4.7-0.8-0.8-1.7-1.5-2.7-0.9-0.9 0.6-0.5 1.6-0.1 2.4 1.2 2.6 2.3 5.1 3.6 7.6 0.8 1.6 1.4 2.6-0.5 3.9-3.7 2.4-4.9 6.2-4.8 10.5 0 3.7-0.1 7.4 1.2 11 0.8 2.4 0.5 4.9 0 7.3-6.1 28.4-14.4 55.9-28.4 81.5-7 12.8-16 24.3-25.6 35.3-0.5 0.5-1 1-1.9 0.8 0.9-8.2 1.9-16.4 2.6-24.6 1.8-21.8 2.2-43.6 2.5-65.5 0.1-3.6 0.7-6.8 2.1-10.2 6.5-15.6 14-30.7 18.7-47.1 0.6-2 1.2-4 1.7-6.1 0.3-1.2 0.7-2.3 1.7-3.2 9.2-8.2 15.5-18.9 22.2-29.1 5.8-8.9 10.3-18.4 14.1-28.3 0.7-1.6 1.3-3.3 1.7-5 1-5.3 2-10.2 7.4-13.5 3-1.8 4.6-5.7 5.6-9.3 1.4-4.8 1.5-9.5-2.5-13.2-1.7-1.6-1.6-2.9-0.4-4.5q2.5-3.4 5.1-6.7c1.1-1.6 2.4-3 3.5-4.6 0.5-0.7 1.1-1.5 0.1-2.2-0.8-0.5-1.7-0.4-2.4 0.2-0.7 0.6-1.2 1.3-1.8 2-1.1 1.2-2.3 2.5-3.8 4.1-0.6-3.1 0.7-5.4 0.7-7.8 0.1-1.2 0.4-2.6-1.3-2.9-1.6-0.2-2 1.2-2.3 2.4-0.7 3.2-1.4 6.4-2.2 10.2-2-1.6-2.1-3.7-2.7-5.3-0.7-1.6-1.2-3.4-1.9-4.9-0.5-1.1-1.6-1.5-2.7-1-0.9 0.5-0.6 1.5-0.5 2.4 0.3 1.5 1.3 2.9 1 4.9-1.3 0.6-2.8-1.4-4.4 0.2 1.3 3.8 4.4 6.7 6.4 10.5-1.4 1.8-3.8 2.8-5.1 4.9-3 4.9-2.4 10.2-1.5 15.4 0.2 1.5 0.8 3.1 1.5 4.5 2.8 4.9 2.1 9.7 0.3 14.7q-6.6 18.4-17.4 34.8c-4.1 6.1-8.2 12.3-12.8 18-0.7 0.9-1.2 2.2-2.9 2.6 0-3.5 1-6.8 1.5-10.2 2.8-18 3.2-36.1 2.7-54.3-0.2-9.3-0.4-18.7-0.7-28-0.1-3.2 0.4-5.7 3.7-7.2 2.4-1.1 4.3-3.1 5.5-5.5 1.8-3.7 2.1-7.6-0.4-11.1-1.2-1.7-0.8-2.7 0.4-4 2.8-2.9 5.8-5.6 8.9-8.1q1-0.9 2-1.7c0.6-0.5 1-1.1 0.5-1.8-0.5-0.6-1.4-0.7-1.9-0.3-2.1 1.3-4 2.7-6 4.1q-0.4-0.3-0.8-0.5zm48.6 189.4c1.2-5.1 3.2-8.6 5.8-11.6 1.8-2.1 3.9-3.6 6.8-2.5 2.7 1 4.4 3.9 4.4 7.1 0 7.5-7.6 13.1-15.2 10.9 1-1.1 2-2 3-3 2.5-2.4 4.9-4.9 7.3-7.4 0.6-0.6 1.2-1.5 0.3-2.3-0.6-0.7-1.6-0.7-2.4-0.2-0.9 0.7-1.8 1.6-2.6 2.5-2.1 2.1-4.1 4.3-7.4 6.5zm-177 39.1c4.8 2.7 9.8 3.7 13.8 7-6 3.2-14 2.4-18-1.8-1.5-1.6-2.6-3.4-1.8-5.7 0.8-2.2 2.2-4 4.6-4.6 4-0.9 11.6 2.8 13.9 6.7-4-0.1-7.4-4.8-12.5-1.6zm18.5-206.2c-6.4-0.5-10.1-3.1-12.4-7.6-1.5-2.9-1.8-5.7-0.4-8.6 1-2 2.4-2.8 4.7-2.1 5 1.7 9.3 7.5 9.4 12.2-2-1.9-4.6-4.3-7.2-6.5-0.8-0.8-1.9-0.9-2.8 0-1.1 1-0.2 1.8 0.4 2.6q4.2 5 8.3 10zm130.8 33.6c-2.2-5.6-2.3-10.5-0.1-15.4 0.9-1.9 2.3-3.9 4.6-3.9 2.1 0.1 3.7 1.8 4.7 3.7 0.5 0.7 0.8 1.5 1 2.4 1.1 5-1.6 11.5-6.5 15.1 0.8-3.2 1.6-6 2.3-8.9 0.3-1.1 0.6-2.3 0.8-3.5 0.2-0.9 0.1-1.9-1-2.2-1.2-0.3-1.9 0.5-2.3 1.6-0.3 0.9-0.4 2-0.7 3-0.8 2.5-0.8 5.2-2.8 8.1zm-3.4 110.9c0.7-2.7 1.5-5.5 2.3-8.3 0.3-1.2 1-2.6-0.6-3.2-1.7-0.7-2.4 0.4-3 1.9-0.7 1.9-0.6 4.1-2.6 6-1-4.8-1.1-9 0.8-13.1 0.9-1.8 2.2-3 4.6-2.6 2.3 0.5 4.4 0.7 4.9 3.7 1.2 5.7-0.4 10.7-3.9 15.1-0.4 0.6-1.2 1.3-2.5 0.5zm-128.8 36.9c-4.9-1.3-8.4-3.3-11.1-6.6-1.9-2.4-1.8-6.4 0-8.8 0.9-1.2 2-1.9 3.6-1.6 4.1 0.6 8.4 6.5 8.2 11.4-1.9-1.3-3.1-3.5-5.3-4.2-0.9-0.3-1.8-0.1-2.3 0.7-0.4 0.7 0.2 1.3 0.7 1.8 2 2 4.2 4 6.2 7.3zm-7.7-63q-2.9-2.4-5.7-4.9c-1.2-1-2.6-1.4-3.7-0.2-1.3 1.5 0.5 2.1 1.2 2.8 2.3 2.4 5.1 4.3 7.4 8.2-5.4-1.6-9.1-3.5-12-6.9-2.2-2.5-2.5-4.7-1.1-6.7 1.4-2.1 4.1-2.7 7-1.4 3.7 1.8 5.9 4.9 6.9 9.1zm5.8-38.1c-3.7-2.6-6.3-5.9-6.2-10.8 0-2.1 0.7-3.6 2.8-4.4 2.1-0.8 3.4 0.1 4.6 1.5 2.8 3.4 4.2 7.3 4.1 12.2-2.1-1.3-2.7-3.2-3.9-4.7-0.7-0.9-1.4-2-2.2-2.9-0.7-0.7-1.5-0.8-2.3-0.2-0.9 0.6-0.8 1.4-0.4 2.3 1.3 2.2 3.1 4.1 3.5 7zm44.6-159.8c-2-2.2-2.8-4.7-2.8-7.6 0-2.1 0.3-4.4 2.9-5 2.2-0.4 4 0.7 5.2 2.6 2 3 2.3 9.4 0.6 13.2-1.4-2.3-1.4-5-2.2-7.5-0.3-1.1-0.6-2.2-2-1.8-1.1 0.3-1.6 1.2-1.5 2.4 0.2 1.2 0.9 2.4-0.2 3.7zm54.1 80.5c-0.6-2.9-0.6-5.4-0.1-7.8 0.4-1.9 1.3-3.9 3.5-4 2.1-0.2 3.6 1.1 4.6 2.9 2.1 3.8 0.9 8-3.2 11.2-0.1-0.4-0.3-0.7-0.3-1-0.2-1.9 2.5-4.5 0.2-5.6-3-1.6-2.4 2.9-4.7 4.3zm-101.7-73c-5.9-1.5-8.8-5.2-8.4-10.4 0.3-3.4 2.9-4.8 5.9-3 3.3 2 5.1 5.1 5.3 9.4-2.6-0.9-3.7-3-5.4-4.4-1.1-1-2.1-1.3-3.2-0.2-1.1 1.2 0 1.9 0.7 2.7 1.5 1.9 3.7 3.4 5.1 5.9z"/>
	</g>
</svg>